HIERARCHY
ROOT Hips
{
	OFFSET 0.000000 0.000000 0.000000
	CHANNELS 6 Xposition Yposition Zposition Xrotation Yrotation Zrotation
	JOINT LeftUpLeg_virtual
	{
		OFFSET 0.000000 0.000000 0.000000
		CHANNELS 3 Xrotation Yrotation Zrotation
		JOINT LeftUpLeg
		{
			OFFSET 11.394100 -6.187798 -0.413800
			CHANNELS 3 Xrotation Yrotation Zrotation
			JOINT LeftLeg
			{
				OFFSET 0.430247 -32.302673 3.732800
				CHANNELS 3 Xrotation Yrotation Zrotation
				JOINT LeftFoot
				{
					OFFSET -0.430247 -48.264931 -6.423300
					CHANNELS 3 Xrotation Yrotation Zrotation
					JOINT LeftToeBase
					{
						OFFSET 4.230900 -16.068199 23.438400
						CHANNELS 3 Xrotation Yrotation Zrotation
						JOINT LeftToe_End
						{
							OFFSET 4.510700 0.695400 19.974600
							CHANNELS 3 Xrotation Yrotation Zrotation
							End Site
							{
								OFFSET 0 0 0
							}
						}
					}
				}
			}
		}
	}
	JOINT RightUpLeg_virtual
	{
		OFFSET 0.000000 0.000000 0.000000
		CHANNELS 3 Xrotation Yrotation Zrotation
		JOINT RightUpLeg
		{
			OFFSET -11.333700 -6.187798 -0.413800
			CHANNELS 3 Xrotation Yrotation Zrotation
			JOINT RightLeg
			{
				OFFSET -0.430392 -32.302628 3.733000
				CHANNELS 3 Xrotation Yrotation Zrotation
				JOINT RightFoot
				{
					OFFSET 0.430392 -48.264973 -6.423500
					CHANNELS 3 Xrotation Yrotation Zrotation
					JOINT RightToeBase
					{
						OFFSET -4.230900 -16.068199 23.438400
						CHANNELS 3 Xrotation Yrotation Zrotation
						JOINT RightToe_End
						{
							OFFSET -4.510700 0.695400 19.974600
							CHANNELS 3 Xrotation Yrotation Zrotation
							End Site
							{
								OFFSET 0 0 0
							}
						}
					}
				}
			}
		}
	}
	JOINT Spine_virtual
	{
		OFFSET 0.000000 0.000000 0.000000
		CHANNELS 3 Xrotation Yrotation Zrotation
		JOINT Spine
		{
			OFFSET -0.002400 12.777504 0.315300
			CHANNELS 3 Xrotation Yrotation Zrotation
			JOINT Spine1
			{
				OFFSET -0.002067 5.816869 0.032633
				CHANNELS 3 Xrotation Yrotation Zrotation
				JOINT Spine1_split
				{
					OFFSET -0.002067 5.816869 0.032633
					CHANNELS 3 Xrotation Yrotation Zrotation
					JOINT Spine2
					{
						OFFSET -0.002067 5.816869 0.032633
						CHANNELS 3 Xrotation Yrotation Zrotation
						JOINT Neck_virtual
						{
							OFFSET 0.000000 0.000000 0.000000
							CHANNELS 3 Xrotation Yrotation Zrotation
							JOINT Neck
							{
								OFFSET -0.003700 21.199493 -0.826900
								CHANNELS 3 Xrotation Yrotation Zrotation
								JOINT Head
								{
									OFFSET 0.000000 20.442200 4.834800
									CHANNELS 3 Xrotation Yrotation Zrotation
									JOINT HeadTop_End
									{
										OFFSET 0.000000 34.668396 4.968400
										CHANNELS 3 Xrotation Yrotation Zrotation
										End Site
										{
											OFFSET 0 0 0
										}
									}
								}
							}
						}
						JOINT LeftShoulder_virtual
						{
							OFFSET 0.000000 0.000000 0.000000
							CHANNELS 3 Xrotation Yrotation Zrotation
							JOINT LeftShoulder
							{
								OFFSET 3.288150 8.794197 -1.372250
								CHANNELS 3 Xrotation Yrotation Zrotation
								JOINT LeftShoulder_split
								{
									OFFSET 3.288150 8.794197 -1.372250
									CHANNELS 3 Xrotation Yrotation Zrotation
									JOINT LeftArm
									{
										OFFSET 11.953299 -2.279007 -0.146200
										CHANNELS 3 Xrotation Yrotation Zrotation
										JOINT LeftForeArm
										{
											OFFSET 18.448900 0.000000 0.000000
											CHANNELS 3 Xrotation Yrotation Zrotation
											JOINT LeftHand
											{
												OFFSET 29.527798 0.000000 0.000000
												CHANNELS 3 Xrotation Yrotation Zrotation
												End Site
												{
													OFFSET 0 0 0
												}
											}
										}
									}
								}
							}
						}
						JOINT RightShoulder_virtual
						{
							OFFSET 0.000000 0.000000 0.000000
							CHANNELS 3 Xrotation Yrotation Zrotation
							JOINT RightShoulder
							{
								OFFSET -3.249400 8.794197 -1.372250
								CHANNELS 3 Xrotation Yrotation Zrotation
								JOINT RightShoulder_split
								{
									OFFSET -3.249400 8.794197 -1.372250
									CHANNELS 3 Xrotation Yrotation Zrotation
									JOINT RightArm
									{
										OFFSET -11.953299 -2.279007 -0.146200
										CHANNELS 3 Xrotation Yrotation Zrotation
										JOINT RightForeArm
										{
											OFFSET -18.448900 0.000000 0.000000
											CHANNELS 3 Xrotation Yrotation Zrotation
											JOINT RightHand
											{
												OFFSET -29.527802 0.000000 0.000000
												CHANNELS 3 Xrotation Yrotation Zrotation
												End Site
												{
													OFFSET 0 0 0
												}
											}
										}
									}
								}
							}
						}
					}
				}
			}
		}
	}
}
MOTION
Frames: 11
Frame Time: 0.03333333
-0.421359 89.727623 0.242474 0.000000 0.000000 0.000000 -3.417731 -16.042595 -2.117629 -39.245157 17.304979 12.966781 48.146693 0.029629 10.326047 -10.698283 1.946694 -7.453679 -0.343778 -0.111486 -1.558157 0.000000 0.000000 0.000000 -3.998032 -15.211881 -1.901690 -35.546012 -21.826129 -12.886240 48.229564 -4.087683 -10.398368 -9.997543 -2.414812 13.520280 -3.181939 0.421182 -1.577537 0.000000 0.000000 0.000000 -2.739116 -17.528099 -1.977268 4.147419 2.488678 2.205842 2.861109 2.027502 -0.081789 1.697963 -0.260566 0.036131 0.000000 0.000000 0.000000 2.842173 1.809493 -0.055336 0.985001 -0.183959 4.646711 0.213831 9.459293 1.522009 0.000000 0.000000 0.000000 2.645892 1.973440 -0.211451 0.006171 -4.091611 17.413477 -1.656870 -0.153452 -0.443431 -66.822507 -43.148303 -62.486587 -0.895380 -34.351692 0.780489 0.000000 0.000000 0.000000 3.054940 1.877336 -0.109209 -0.334532 -3.319969 -5.274573 0.695666 0.657877 0.582299 -104.200396 58.861464 95.722280 -1.547937 29.669269 0.414286 0.000000 0.000000 0.000000 
-0.446882 89.677521 0.228756 0.000000 0.000000 0.000000 -3.370814 -16.092296 -2.103196 -39.331839 17.308111 12.901121 48.065476 0.050688 10.348967 -10.605771 1.912542 -7.482712 -0.388717 -0.082143 -1.595596 0.000000 0.000000 0.000000 -4.001467 -15.153992 -1.887638 -35.471273 -21.844275 -12.910064 48.526329 -4.150879 -10.343231 -10.242643 -2.397408 13.563718 -2.637808 0.394826 -1.698858 0.000000 0.000000 0.000000 -2.766705 -17.394197 -2.067797 4.142672 2.455778 2.158984 2.872413 2.019006 -0.112062 1.574971 0.062114 -0.100263 0.000000 0.000000 0.000000 2.765890 1.789248 -0.082308 0.851578 -0.310511 4.678388 0.410199 9.497298 1.512000 0.000000 0.000000 0.000000 2.659286 1.954991 -0.220730 -0.049085 -3.941785 17.335469 -1.658045 -0.139945 -0.335279 -66.778288 -43.366182 -62.606211 -0.842668 -34.657872 0.846715 0.000000 0.000000 0.000000 3.119597 1.879107 -0.128320 -0.312615 -3.225708 -5.367625 0.695337 0.611452 0.557116 -104.211427 59.369657 95.899087 -1.416126 29.399306 0.378469 0.000000 0.000000 0.000000 
-0.462396 89.635086 0.219505 0.000000 0.000000 0.000000 -3.311836 -16.192661 -2.052202 -39.465185 17.336156 12.809809 48.006992 0.054932 10.445333 -10.346801 1.796360 -7.626231 -0.352560 -0.037139 -1.702729 0.000000 0.000000 0.000000 -3.988368 -15.258492 -1.843917 -35.427699 -21.852466 -12.925899 48.654969 -4.267929 -10.271502 -10.233474 -2.430766 13.645945 -2.489799 0.301791 -1.833864 0.000000 0.000000 0.000000 -2.834828 -17.228385 -2.150328 4.061281 2.385354 2.062285 2.820687 2.050410 -0.152620 1.323519 0.072035 -0.213360 0.000000 0.000000 0.000000 2.721032 1.815291 -0.130611 0.753460 -0.525271 4.877458 0.834454 9.332085 1.684754 0.000000 0.000000 0.000000 2.660095 1.979775 -0.252621 -0.134714 -3.637980 17.162177 -1.571240 -0.122479 -0.328187 -66.612021 -43.830871 -62.662430 -0.877210 -35.134271 0.799080 0.000000 0.000000 0.000000 3.150330 1.914797 -0.160286 -0.240390 -2.999872 -5.511252 0.508156 0.546326 0.355785 -104.018583 60.025485 96.220058 -1.245684 29.191791 0.302424 0.000000 0.000000 0.000000 
-0.468132 89.631065 0.224983 0.000000 0.000000 0.000000 -3.241627 -16.384867 -1.980240 -39.614192 17.411788 12.766407 47.920549 0.068334 10.579880 -10.034058 1.644748 -7.803065 -0.243732 0.021408 -1.845331 0.000000 0.000000 0.000000 -3.898282 -15.541346 -1.774378 -35.390222 -21.824862 -12.891645 48.555152 -4.395198 -10.213381 -9.973516 -2.484860 13.693308 -2.756456 0.156551 -1.859880 0.000000 0.000000 0.000000 -2.911763 -17.163268 -2.194640 3.910417 2.280934 1.952394 2.714335 2.095721 -0.198101 1.015361 -0.204808 -0.158741 0.000000 0.000000 0.000000 2.698367 1.869592 -0.186488 0.693450 -0.776069 5.191074 1.342502 9.076504 1.981388 0.000000 0.000000 0.000000 2.632954 2.029409 -0.303688 -0.237096 -3.229815 16.879663 -1.372423 -0.142455 -0.409295 -66.377390 -44.555677 -62.764289 -0.953579 -35.557449 0.643110 0.000000 0.000000 0.000000 3.139613 1.964008 -0.198487 -0.126970 -2.690296 -5.708730 0.312054 0.450033 0.151689 -103.641427 60.662523 96.605649 -1.066866 29.144762 0.203109 0.000000 0.000000 0.000000 
-0.474791 89.654930 0.242004 0.000000 0.000000 0.000000 -3.199241 -16.682063 -1.916295 -39.778947 17.521126 12.782964 47.830862 0.115114 10.721278 -9.713016 1.524606 -7.929068 -0.093789 0.089609 -1.973854 0.000000 0.000000 0.000000 -3.727755 -15.936901 -1.705475 -35.372095 -21.725905 -12.790357 48.351893 -4.546408 -10.170002 -9.612554 -2.549662 13.523810 -2.886863 -0.024745 -1.669901 0.000000 0.000000 0.000000 -2.887194 -17.243847 -2.178886 3.720014 2.168630 1.852357 2.578383 2.131446 -0.239541 0.908554 -0.549423 -0.033867 0.000000 0.000000 0.000000 2.678664 1.915444 -0.234919 0.653345 -1.009129 5.493568 1.746141 8.841145 2.313444 0.000000 0.000000 0.000000 2.570090 2.072225 -0.358461 -0.352237 -2.773718 16.547498 -1.280039 -0.162115 -0.568152 -66.162342 -45.491252 -62.949551 -0.997610 -35.858104 0.463969 0.000000 0.000000 0.000000 3.076695 2.001460 -0.232680 0.005340 -2.341231 -5.946895 0.127824 0.318155 -0.044355 -103.230058 61.138198 96.948825 -0.923516 29.264540 0.155336 0.000000 0.000000 0.000000 
-0.458372 89.701019 0.227509 0.000000 0.000000 0.000000 -3.199863 -17.062940 -1.874983 -39.910117 17.650800 12.839044 47.806143 0.212456 10.841212 -9.452756 1.473991 -7.939151 0.038558 0.152587 -2.069701 0.000000 0.000000 0.000000 -3.569651 -16.356534 -1.662884 -35.516550 -21.578608 -12.685583 48.242531 -4.729694 -10.136467 -9.229077 -2.609627 13.164830 -2.690024 -0.208805 -1.297513 0.000000 0.000000 0.000000 -2.775416 -17.500061 -2.115427 3.574009 2.066201 1.765642 2.430557 2.138878 -0.278846 1.060537 -0.872972 0.131893 0.000000 0.000000 0.000000 2.650587 1.934849 -0.259783 0.609220 -1.194798 5.707398 1.939553 8.721809 2.584702 0.000000 0.000000 0.000000 2.474810 2.081163 -0.406226 -0.470886 -2.302346 16.204036 -1.169063 -0.020716 -0.740178 -66.081008 -46.603200 -63.270747 -0.915597 -36.062931 0.340649 0.000000 0.000000 0.000000 2.965020 2.009184 -0.254431 0.124602 -2.028486 -6.255810 0.035573 0.275779 -0.205246 -102.757587 61.311179 96.998453 -0.827281 29.246716 0.182341 0.000000 0.000000 0.000000 
-0.419549 89.754631 0.112125 0.000000 0.000000 0.000000 -3.234708 -17.405658 -1.856229 -40.042568 17.830743 12.907746 47.911335 0.398623 10.911879 -9.319406 1.498629 -7.805052 0.085088 0.202376 -2.106587 0.000000 0.000000 0.000000 -3.473015 -16.729222 -1.643314 -35.865453 -21.438803 -12.651978 48.358511 -4.879914 -10.131932 -8.886728 -2.603880 12.899976 -2.444583 -0.361152 -0.973675 0.000000 0.000000 0.000000 -2.587753 -17.873886 -2.034771 3.519122 2.022433 1.696583 2.290058 2.127340 -0.304490 1.165107 -1.080446 0.244397 0.000000 0.000000 0.000000 2.601174 1.925543 -0.258955 0.549140 -1.305072 5.772824 1.960736 8.755812 2.728423 0.000000 0.000000 0.000000 2.371736 2.066810 -0.434619 -0.575929 -1.846974 15.888734 -1.001074 0.283385 -0.926578 -66.069444 -47.841739 -63.703132 -0.603331 -36.118030 0.355563 0.000000 0.000000 0.000000 2.811476 1.994131 -0.262985 0.187362 -1.791146 -6.618493 0.126045 0.447010 -0.284397 -102.148075 61.140001 96.617841 -0.763200 28.879590 0.271116 0.000000 0.000000 0.000000 
-0.375001 89.781250 -0.024406 0.000000 0.000000 0.000000 -3.296721 -17.580111 -1.864275 -40.224746 18.003390 12.941839 48.155371 0.609944 10.948611 -9.244220 1.549341 -7.635909 -0.031339 0.234201 -2.072608 0.000000 0.000000 0.000000 -3.461228 -16.940302 -1.640308 -36.347268 -21.363044 -12.703166 48.737003 -4.961394 -10.165429 -8.595067 -2.509518 12.954941 -2.411483 -0.454538 -0.918551 0.000000 0.000000 0.000000 -2.328091 -18.230466 -1.950993 3.558405 2.066391 1.637114 2.177244 2.117901 -0.310097 1.251219 -1.157639 0.215950 0.000000 0.000000 0.000000 2.541273 1.904547 -0.241095 0.500801 -1.354743 5.670019 1.937229 8.880701 2.748321 0.000000 0.000000 0.000000 2.305435 2.042940 -0.436230 -0.648132 -1.472216 15.668430 -0.814484 0.695936 -1.033966 -65.948386 -49.127973 -64.107568 -0.106584 -35.924428 0.504049 0.000000 0.000000 0.000000 2.663914 1.976759 -0.258202 0.191316 -1.655234 -6.976406 0.259939 0.701142 -0.227682 -101.555801 60.735162 96.034277 -0.723738 28.235141 0.389957 0.000000 0.000000 0.000000 
-0.327439 89.789413 -0.141537 0.000000 0.000000 0.000000 -3.367008 -17.534332 -1.891828 -40.419277 18.112692 12.928421 48.421123 0.745793 10.980643 -9.209004 1.563156 -7.570608 -0.267089 0.239009 -1.992057 0.000000 0.000000 0.000000 -3.545070 -16.927915 -1.650229 -36.799461 -21.454188 -12.818283 49.198546 -4.988803 -10.221481 -8.460130 -2.392448 13.357692 -2.610433 -0.471628 -1.184691 0.000000 0.000000 0.000000 -2.120590 -18.479951 -1.892447 3.657265 2.191603 1.592577 2.106064 2.134134 -0.296074 1.273106 -1.230132 0.184131 0.000000 0.000000 0.000000 2.472689 1.904117 -0.219432 0.582488 -1.339465 5.455284 2.078767 8.994448 2.719390 0.000000 0.000000 0.000000 2.323596 2.032510 -0.420527 -0.659324 -1.262936 15.555288 -0.545444 1.198988 -1.022044 -65.877714 -50.434605 -64.659092 0.371396 -35.318693 0.645650 0.000000 0.000000 0.000000 2.591935 1.985174 -0.258071 0.133280 -1.642534 -7.324258 0.483615 0.972359 -0.096303 -101.020909 60.330965 95.429634 -0.697580 27.571353 0.454322 0.000000 0.000000 0.000000 
-0.281716 89.765549 -0.261406 0.000000 0.000000 0.000000 -3.448583 -17.309158 -1.925360 -40.571542 18.115193 12.871474 48.540867 0.746961 11.021488 -9.216313 1.510864 -7.660432 -0.440418 0.212486 -1.894064 0.000000 0.000000 0.000000 -3.732794 -16.720990 -1.672962 -36.959096 -21.715661 -12.905144 49.495768 -5.013157 -10.294056 -8.679830 -2.363273 13.807634 -2.844024 -0.410281 -1.646580 0.000000 0.000000 0.000000 -2.043377 -18.541863 -1.881317 3.723546 2.383370 1.573127 2.085728 2.187029 -0.269798 1.128640 -1.294001 0.131823 0.000000 0.000000 0.000000 2.403501 1.942557 -0.207187 0.898639 -1.244967 5.178478 2.582513 9.062705 2.714881 0.000000 0.000000 0.000000 2.434388 2.053024 -0.400801 -0.600026 -1.283826 15.574131 -0.374382 1.659419 -1.042397 -66.033333 -51.646421 -65.417701 0.647700 -34.233086 0.691016 0.000000 0.000000 0.000000 2.636441 2.025366 -0.275887 0.021683 -1.694082 -7.649771 0.671155 1.175489 0.044915 -100.503816 60.240397 94.928517 -0.670815 27.283840 0.435612 0.000000 0.000000 0.000000 
-0.239360 89.692451 -0.253819 0.000000 0.000000 0.000000 -3.588409 -17.042505 -1.955996 -40.499214 17.992561 12.744634 48.434043 0.569184 11.087608 -9.316246 1.433965 -7.882946 -0.402707 0.156497 -1.838116 0.000000 0.000000 0.000000 -3.992211 -16.423545 -1.704973 -36.691913 -22.081629 -12.886457 49.589205 -5.136176 -10.339616 -9.247276 -2.543241 13.834435 -2.851610 -0.301815 -2.022969 0.000000 0.000000 0.000000 -2.149147 -18.441794 -1.914219 3.692574 2.588505 1.581359 2.099542 2.255538 -0.250058 1.095512 -1.366256 0.095027 0.000000 0.000000 0.000000 2.360109 2.006471 -0.206289 1.426544 -1.070719 4.935504 3.445909 9.112122 2.782671 0.000000 0.000000 0.000000 2.570289 2.093451 -0.388642 -0.468224 -1.588942 15.704097 -0.307089 1.982100 -0.989083 -66.545693 -52.651323 -66.326389 0.593696 -32.913575 0.607064 0.000000 0.000000 0.000000 2.804532 2.086167 -0.305529 -0.098537 -1.700799 -7.972350 0.634642 1.109687 0.211055 -99.924090 60.698532 94.451093 -0.612459 27.531487 0.320365 0.000000 0.000000 0.000000 
